# xmcd
#
# Track frame offsets:
#	183
#	13368
#	26720
#	39990
#	53610
#	65658
#	76665
#	88385
#	101258
#	112375
#	124040
#	135340
#	148183
#	158650
#	169823
#	180000
#	190823
#	201038
#	212485
#	223970
#	237155
#	248338
#	260920
#	272740
#
# Disc length: 3780 seconds
#
# Revision: 1
# Processed by: cddbd v1.4PL0 Copyright (c) Steve Scherf et al.
# Submitted via: audiograbber 1.81.03
#
DISCID=540ec218
DTITLE=Swallows - Dearest
DYEAR=1900
DGENRE=
TTITLE0=Will You Be Mine
TTITLE1=Dearest
TTITLE2=Wishing For You
TTITLE3=Since You've Been Away
TTITLE4=Eternally
TTITLE5=You Left Me
TTITLE6=It Ain't The Meat
TTITLE7=Roll Roll Pretty Baby
TTITLE8=Tell Me Why
TTITLE9=Beside You
TTITLE10=I Only Have Eyes For You
TTITLE11=Deed I Do
TTITLE12=You Walked In
TTITLE13=Our Love Is Dying
TTITLE14=Where Do I Go From Here
TTITLE15=Nobody's Lovin' Me
TTITLE16=Please Baby Please
TTITLE17=Laugh (Though You Want To Cry)
TTITLE18=Trust Me
TTITLE19=Will You Be Mine
TTITLE20=Pleading Blues
TTITLE21=I'll Be Waiting
TTITLE22=Bicycle Tillie
TTITLE23=It Feels So Good
EXTD=
EXTT0=
EXTT1=
EXTT2=
EXTT3=
EXTT4=
EXTT5=
EXTT6=
EXTT7=
EXTT8=
EXTT9=
EXTT10=
EXTT11=
EXTT12=
EXTT13=
EXTT14=
EXTT15=
EXTT16=
EXTT17=
EXTT18=
EXTT19=
EXTT20=
EXTT21=
EXTT22=
EXTT23=
PLAYORDER=
